# xmcd CD database file
#
# Track frame offsets:
#	150
#	11988
#	21532
#	31327
#	44032
#	56395
#	71395
#	81682
#	93561
#	106700
#	120781
#	134624
#	148868
#	162596
#	176963
#	188439
#	197028
#	208616
#	220954
#	234501
#	245085
#	258770
#	274190
#	288692
#	300525
#	311483
#	323717
#	335664
#
# Disc length: 4621 seconds
#
# Revision: 0
# Processed by: cddbd v1.5.2PL0 Copyright (c) Steve Scherf et al.
# Submitted via: CDex 1.51
#
DISCID=af120b1c
DTITLE=Rosco Gordon - No More Doggin' - RPM-Vee Jay Years
DYEAR=1900
DGENRE=Blues
TTITLE0=No More Doggin'
TTITLE1=Goin' Home
TTITLE2=Just A Little Bit
TTITLE3=That's What You Do To Me
TTITLE4=Roscoe's Boogie
TTITLE5=City Woman
TTITLE6=She Rocks Me
TTITLE7=Ouch! Pretty Baby
TTITLE8=Saddled The Cow (And Milked The Horse)
TTITLE9=Run To Me Baby
TTITLE10=Miserable Old Feeling
TTITLE11=Booted
TTITLE12=Two Kinds Of Woman
TTITLE13=No More Doggin'
TTITLE14=Maria
TTITLE15=What You Got On Your Mind
TTITLE16=New Orleans Wimmen
TTITLE17=Lucille (Looking For My Baby)
TTITLE18=Blues For My Baby
TTITLE19=Tomorrow May Be Too Late
TTITLE20=Who Do I Love You Baby
TTITLE21=Throwing My Money Away
TTITLE22=Whiskey Made Me Drunk
TTITLE23=Surely I Love You
TTITLE24=What I Wouldn't Do
TTITLE25=Let 'Em Try
TTITLE26=Jelly, Jelly
TTITLE27=New Orleans, Lousiana
EXTD=
EXTT0=
EXTT1=
EXTT2=
EXTT3=
EXTT4=
EXTT5=
EXTT6=
EXTT7=
EXTT8=
EXTT9=
EXTT10=
EXTT11=
EXTT12=
EXTT13=
EXTT14=
EXTT15=
EXTT16=
EXTT17=
EXTT18=
EXTT19=
EXTT20=
EXTT21=
EXTT22=
EXTT23=
EXTT24=
EXTT25=
EXTT26=
EXTT27=
PLAYORDER=
